<?xml version="1.0" encoding="UTF-8"?>
<!DOCTYPE svg PUBLIC "-//W3C//DTD SVG 1.1//EN" "http://www.w3.org/Graphics/SVG/1.1/DTD/svg11.dtd">
<!-- Creator: CorelDRAW -->
<svg xmlns="http://www.w3.org/2000/svg" xml:space="preserve" width="293.462mm" height="65.627mm" version="1.1" style="shape-rendering:geometricPrecision; text-rendering:geometricPrecision; image-rendering:optimizeQuality; fill-rule:evenodd; clip-rule:evenodd"
viewBox="0 0 21181.05 4736.72"
 xmlns:xlink="http://www.w3.org/1999/xlink"
 xmlns:xodm="http://www.corel.com/coreldraw/odm/2003">
 <defs>
  <style type="text/css">
   <![CDATA[
    .fil1 {fill:#0098A0}
    .fil0 {fill:#FEFEFE}
   ]]>
  </style>
 </defs>
 <g id="Camada_x0020_1">
  <metadata id="CorelCorpID_0Corel-Layer"/>
  <g id="_2378396894656">
   <g>
    <path class="fil0" d="M1478.46 932.08c180.98,207.05 224.41,512.02 224.41,777.28 0,270.6 -44.74,562.28 -221.01,777.99 -1.8,2.86 -3.75,5.7 -5.84,8.52 3.08,4.63 5.9,9.43 8.37,14.47 174.15,215.38 218.48,505.57 218.48,774.86 0,265.42 -43.48,570.62 -224.76,777.67 -179.68,220.88 -445.33,295.75 -721.8,295.75l-756.31 0 0 -3722.68 756.31 0c275.45,0 545.65,72.08 722.15,296.14zm355.95 787.04c0,-270.25 48.17,-561.86 218.29,-780.57l0.79 -1.03 0.85 -1c71.53,-84.53 155,-151.95 252.25,-205.01l2.01 -1.05c140.22,-70.11 286.72,-99.4 443.1,-99.4 271.34,0 528.72,88.54 699.01,307.5 170.11,218.7 218.29,510.32 218.29,780.57l0 1546.56c0,270.24 -48.2,561.86 -218.29,780.57 -170.29,218.96 -427.67,307.49 -699.01,307.49 -268.66,0 -530.24,-90.51 -699.01,-307.49 -170.11,-218.7 -218.29,-510.32 -218.29,-780.57l0 -1546.56zm-1248.76 -497.53l0 980.43 170.66 0c52.78,0 146.29,-4.79 193.56,-31.04 12.61,-7.01 61.91,-33.64 69.07,-45.44l2.44 -4.06 3 -3.65c78.67,-95.52 87.97,-291.21 87.97,-408.46 0,-123.85 -8.44,-325.36 -98.5,-423.41 -67.2,-61.6 -171.57,-64.36 -257.54,-64.36l-170.66 0zm0 1566.07l0 985.32 170.66 0c88.01,0 191.14,-2.79 257.56,-69.21 90.61,-90.61 98.48,-300.42 98.48,-418.57 0,-127.23 -10.98,-332.67 -103.39,-433.17 -67.33,-61.8 -166.24,-64.37 -252.65,-64.37l-170.66 0zm1834.4 478.02c0,130.58 11.73,351.9 123.23,443.72 62.08,51.14 131.12,58.7 208.42,58.7 74.38,0 148.96,-9.7 208.43,-58.69 111.51,-91.84 123.23,-313.15 123.23,-443.73l0 -1546.56c0,-127.46 -14.44,-354.12 -123.23,-443.72 -60.25,-49.63 -134.03,-53.81 -208.43,-53.81 -76.98,0 -145.87,2.29 -208.44,53.81 -108.8,89.59 -123.22,316.26 -123.22,443.72l0 1546.56z"/>
    <path class="fil0" d="M3848.25 4358.62l0 -3722.68 780.7 0c692.04,0 975.85,452.99 975.85,1102.68l0 1512.43c0,648.69 -283.21,1107.57 -975.85,1107.57l-780.7 0zm585.65 -3137.03l0 2551.39 195.05 0c93.14,0 197.34,-8.26 268.03,-74.75 102.11,-102.13 117.29,-311.75 117.29,-447.17l0 -1512.43c0,-135.41 -15.19,-345.04 -117.29,-447.16 -70.06,-65.9 -176.34,-69.87 -268.03,-69.87l-195.05 0z"/>
   </g>
   <g>
    <path class="fil0" d="M15869.66 1221.31l0 980.99 1029.42 0 0 585.09 -1029.42 0 0 985.87 1029.42 0 0 585.09 -1614.51 0 0 -3722.13 1614.51 0 0 585.09 -1029.42 0zm2569.64 2132.01l-523.6 0 -229.3 1005.02 -603.18 0 858.57 -3722.13 466.4 0 868.67 3722.13 -608.25 0 -229.3 -1005.02zm-387.12 -585.08l250.63 0 -125.32 -540.04 -125.31 540.04zm1372.88 1590.11l0 -3722.13 780.42 0c691.89,0 975.57,452.87 975.57,1102.41l0 1512.43c0,648.53 -283.08,1107.29 -975.57,1107.29l-780.42 0zm585.09 -3137.03l0 2551.94 195.32 0c93.22,0 197.47,-8.28 268.21,-74.83 102.19,-102.21 117.39,-311.85 117.39,-447.37l0 -1512.43c0,-135.5 -15.2,-345.16 -117.39,-447.36 -70.12,-65.97 -176.46,-69.95 -268.21,-69.95l-195.32 0z"/>
    <polygon class="fil0" points="14465.84,2202.29 14465.84,636.21 15055.81,636.21 15055.81,4358.34 14465.84,4358.34 14465.84,2792.26 13899.54,2792.26 13899.54,4358.34 13314.45,4358.34 13314.45,636.21 13899.54,636.21 13899.54,2202.29 "/>
   </g>
   <polygon class="fil0" points="6812.09,2106.2 7506.34,635.94 8178.55,635.94 7104.72,2790.44 7104.72,4358.62 6519.08,4358.62 6519.08,2790.36 5450.38,635.94 6122.47,635.94 "/>
   <path class="fil1" d="M9769.16 3639.17c65.82,-63.55 129.82,-129.48 189.72,-198.47 10.88,-15.06 21.61,-30.27 32.16,-45.57 217.95,-316.52 225.98,-399.74 117.91,-766.49 -46.11,-156.51 -67.96,-275.04 -174.44,-405.57 -51.12,-62.69 -101.85,-126.11 -145.61,-194.24 -45.15,-70.29 -80.9,-143.45 -112.65,-220.62 -37.49,-91.15 -68.01,-185.28 -87.12,-282.02 -15.2,-76.98 -32.09,-169.07 -33.04,-247.21 -0.37,-29.33 -3.4,-58.46 -3.24,-87.82 0.5,-99.11 0.18,-198.23 0.06,-297.35 -69.66,16.02 -139.33,32 -208.39,50.47l84.04 508.57c7.43,44.95 19.26,86.71 19.26,132.84l0 43.92 -43.77 3.64c-52.72,4.4 -109.1,18.89 -161.74,27.69 -54.31,9.07 -108.5,18.64 -162.81,27.69 -54.3,9.06 -108.51,18.69 -162.82,27.7 -27.55,4.58 -55.02,9.71 -82.56,14.31 -28.69,4.79 -60.03,13.08 -89.01,13.08l-46.68 0 -1.04 -46.67c-0.26,-12.05 -5.31,-29.33 -7.43,-41.67l-57.76 -335.93c-12.35,-63.09 -22.44,-127.15 -33.45,-191.05l-66.32 -384.79c-16.91,-98.22 -35,-196.32 -52.25,-294.49 -10.78,-61.23 -21.48,-122.46 -31.74,-183.77 -4.89,-29.25 -14.38,-72.98 -15.03,-102.11l-1.11 -48.79 48.82 0c21.72,0 50.77,-5.91 72.32,-9.82 27.99,-5.1 55.92,-11.07 83.96,-15.78l326.06 -54.9c26.76,-4.5 53.52,-8.91 80.3,-13.35 30.55,-5.09 83.83,-23.46 111.97,-12.62 42.75,16.47 40.95,69.28 47.05,106.94l39.1 241.6c8.83,54.62 17.99,109.17 26.73,163.82 5.77,35.96 14.85,73.53 20.48,110.8 210.65,-61.05 427.18,-98.54 644,-130.03 63.98,-9.3 127.94,-18.35 192.55,-22.32 15.32,-0.94 30.77,-2 45.98,-3.97 45.72,-5.93 93.56,-8.2 139.65,-10.82 30.47,-1.72 69.85,-1.74 99.45,-6.23l2.27 -0.33 101.64 -5.56c34.93,-1.04 69.79,0.66 104.69,0.22 16.82,-0.21 32.98,-3.51 50.5,-3.51l103.75 -0.07c16.33,0 31.14,3.55 46.65,3.58 35.4,0.04 70.83,-1.98 106.24,-0.08 15.96,0.86 31.19,3.39 47.29,3.31l1.25 -0.01 145.56 6.97 0.74 0.05c165.1,13.23 329.66,30.17 493.37,55.45 163.21,25.18 324.12,58.67 484.32,98.68 10.14,2.54 21.72,6.39 33.17,10.07l17.78 -107.86c13.28,-80.45 27.72,-160.79 41.27,-241.2 8.29,-49.18 16.51,-98.39 24.21,-147.67 3.59,-23.05 10.04,-55.09 10.75,-78.05l0 -51.69 51.69 4.3c15.89,1.31 31.24,5.02 46.91,7.65l454.96 76.38c28.09,4.72 56.18,10.49 84.27,15.48 21.27,3.77 53.71,10.6 74.89,10.6l51.87 0 -4.3 51.69c-2.06,24.65 -7.22,51.48 -11.32,75.96 -6.73,40.04 -13.8,80.05 -20.93,120.01 -11.48,64.18 -23.83,128.45 -34.64,192.72 -21.64,128.53 -43.72,257.01 -65.88,385.47l-99.77 578.59c-5.55,32.19 -11.32,64.37 -16.67,96.62 -2.68,16.24 -5.4,32.46 -8.11,48.7 -2.01,11.99 -6.25,27.72 -6.5,39.54l-1.03 46.66 -46.7 0c-52.38,0 -121.1,-19.36 -174.1,-28.89 -82.59,-14.85 -165.1,-30.99 -247.62,-46.28 -52.1,-9.65 -104.22,-19.25 -156.42,-28.46 -24.99,-4.41 -56.77,-11.43 -81.86,-13.37l-58.09 -1.29 13.32 -57.22c6.26,-26.94 9.73,-54.96 14.18,-82.29l69.69 -428.22c4.66,-28.74 9.54,-57.44 14.37,-86.16 2.12,-12.64 4.96,-26.46 7.17,-40.27l-194.7 -44.24c1.6,176.9 8.08,355.81 -19.03,530.81 -36.95,238.7 -104.36,430.58 -241.35,630.91 -28.34,41.41 -57.49,82.37 -85.4,124.01 -16,23.89 -31.74,48.37 -43.82,74.53 -29.59,64.16 -45.34,159.24 -60.1,228.32 -13.22,61.83 -73.87,204.92 -66.27,265.93 16.64,16.12 101.82,44.37 120.98,51.1 90.46,31.81 176.09,65.16 258.84,114.57 269.42,160.89 387.4,419.99 416.11,725.55 27.51,292.64 -53.39,568.53 -264.87,776.72 -204.69,201.49 -489.59,298.08 -771.91,316.21 -477.3,30.62 -933.83,-100.04 -1342.45,-341.42 -82.76,65.39 -167.33,128.67 -254.18,188.46l-12.74 8.76 -916.32 -21.72 10.73 -7.67 -11.39 0.12 223.97 -152.04c183.96,-132.82 366.29,-269.85 543.06,-413.23 -261.39,-384.79 -317.42,-785.93 -272.11,-1247.47l4.8 -48.91 498.03 63.58 6.78 3.21c46.87,22.04 37,81.95 33.67,123.09 -22.44,278.23 -27.82,520.88 133.27,752.09zm940.86 -1815.23c-241.38,0 -437.04,-195.69 -437.04,-437.06 0,-241.37 195.68,-437.06 437.04,-437.06 241.35,0 437.05,195.69 437.05,437.06 0,241.37 -195.69,437.06 -437.05,437.06zm-527.77 2233.31c205.75,154.1 626.57,214.75 864.24,182.01 194.01,-26.74 366.1,-144.91 447.6,-324.84 85.69,-189.22 13.85,-399.03 -171.85,-491.93 -101.59,-50.81 -217.29,-55.11 -326.23,-27.57 -159.05,40.22 -300.09,144.67 -412.89,260.55 -131.98,135.66 -267.7,267.4 -400.87,401.78zm-84.09 -3250.34c-0.9,11.45 -2.04,22.8 -2.08,33.77 -1,303.47 -21,554.97 115.08,838.03 56.82,118.21 141.49,230.12 254.49,299.58 114.91,70.62 241.5,86.45 372.12,53.35 341.79,-86.54 471.87,-481.71 493.96,-794.89 10.1,-143 -3.39,-286.49 2.87,-429.48 -9.16,-1.18 -18.26,-2.42 -27.3,-3.41l-248.55 -22.68 -648.22 -1.78c-13.4,1.68 -25.19,1.44 -38.65,1.75l-273.73 25.77z"/>
  </g>
 </g>
</svg>
